<svg xmlns="http://www.w3.org/2000/svg" width="25.198" height="15.119" viewBox="0 0 25.198 15.119"><defs><style>.a{fill:#3e515a;}</style></defs><path class="a" d="M24.5,8.012,13.52,4.638a3.145,3.145,0,0,0-1.842,0L.7,8.012a.927.927,0,0,0,0,1.795L2.61,10.4a3.1,3.1,0,0,0-.7,1.847,1.215,1.215,0,0,0-.1,2.087L.8,18.852a.63.63,0,0,0,.615.767H3.624a.63.63,0,0,0,.615-.767L3.234,14.329a1.212,1.212,0,0,0-.071-2.068,1.857,1.857,0,0,1,.815-1.446l7.7,2.366a3.149,3.149,0,0,0,1.842,0L24.5,9.807A.927.927,0,0,0,24.5,8.012ZM13.89,14.386a4.407,4.407,0,0,1-2.582,0L5.6,12.632,5.04,17.1c0,1.392,3.384,2.52,7.559,2.52s7.559-1.128,7.559-2.52L19.6,12.631l-5.71,1.754Z" transform="translate(0 -4.5)"/></svg>