<svg xmlns="http://www.w3.org/2000/svg" width="26.178" height="18.324" viewBox="0 0 26.178 18.324"><defs><style>.a{fill:#3e515a;}</style></defs><path class="a" d="M3.927,10.1A2.618,2.618,0,1,0,1.309,7.486,2.62,2.62,0,0,0,3.927,10.1Zm18.324,0a2.618,2.618,0,1,0-2.618-2.618A2.62,2.62,0,0,0,22.251,10.1Zm1.309,1.309H20.942a2.61,2.61,0,0,0-1.845.761,5.983,5.983,0,0,1,3.072,4.475h2.7a1.307,1.307,0,0,0,1.309-1.309V14.03A2.62,2.62,0,0,0,23.56,11.412Zm-10.471,0A4.581,4.581,0,1,0,8.508,6.831,4.579,4.579,0,0,0,13.089,11.412Zm3.141,1.309h-.339a6.325,6.325,0,0,1-5.6,0H9.948a4.713,4.713,0,0,0-4.712,4.712v1.178A1.964,1.964,0,0,0,7.2,20.574h11.78a1.964,1.964,0,0,0,1.963-1.963V17.433A4.713,4.713,0,0,0,16.23,12.721Zm-9.15-.548a2.61,2.61,0,0,0-1.845-.761H2.618A2.62,2.62,0,0,0,0,14.03v1.309a1.307,1.307,0,0,0,1.309,1.309H4A6,6,0,0,1,7.08,12.173Z" transform="translate(0 -2.25)"/></svg>