<svg xmlns="http://www.w3.org/2000/svg" width="18.502" height="18.507" viewBox="0 0 18.502 18.507"><defs><style>.a{fill:#3e515a;}</style></defs><path class="a" d="M21.474,13.751A2.381,2.381,0,0,1,23,11.53,9.437,9.437,0,0,0,21.86,8.779a2.413,2.413,0,0,1-.968.207,2.376,2.376,0,0,1-2.173-3.344A9.409,9.409,0,0,0,15.972,4.5a2.379,2.379,0,0,1-4.442,0A9.437,9.437,0,0,0,8.779,5.642,2.376,2.376,0,0,1,6.606,8.986a2.334,2.334,0,0,1-.968-.207A9.646,9.646,0,0,0,4.5,11.535a2.38,2.38,0,0,1,0,4.442,9.437,9.437,0,0,0,1.142,2.751,2.377,2.377,0,0,1,3.137,3.137,9.492,9.492,0,0,0,2.751,1.142,2.374,2.374,0,0,1,4.433,0,9.437,9.437,0,0,0,2.751-1.142,2.379,2.379,0,0,1,3.137-3.137A9.492,9.492,0,0,0,23,15.977,2.392,2.392,0,0,1,21.474,13.751Zm-7.68,3.85a3.855,3.855,0,1,1,3.855-3.855A3.853,3.853,0,0,1,13.794,17.6Z" transform="translate(-4.5 -4.5)"/></svg>