<svg xmlns="http://www.w3.org/2000/svg" width="19.059" height="19.052" viewBox="0 0 19.059 19.052"><defs><style>.a{fill:#3e515a;}</style></defs><path class="a" d="M15.645,13.941a.2.2,0,0,0-.328-.03l-3.909,5.2a.2.2,0,0,0,.136.328l6.852.6a.2.2,0,0,0,.191-.3Z" transform="translate(-5.849 -6.828)"/><path class="a" d="M24.885,18.5a.2.2,0,0,0-.328-.03L23.5,19.542a.2.2,0,0,0-.021.23l1.08,2.105a.2.2,0,0,0,.157.1l1.91.166a.2.2,0,0,0,.191-.3Z" transform="translate(-10.627 -8.631)"/><path class="a" d="M25.915,14.464a1.006,1.006,0,1,0-1.008-1.2A1.014,1.014,0,0,0,25.915,14.464Z" transform="translate(-11.194 -6.28)"/><path class="a" d="M20.25,6.388l-2.8-.242L17.192,3.3a1.149,1.149,0,0,0-1.255-1.042L3.3,3.394A1.154,1.154,0,0,0,2.254,4.644l1.14,12.611A1.149,1.149,0,0,0,4.649,18.3l.668-.06-.064.71A1.15,1.15,0,0,0,6.3,20.195l12.645,1.1A1.154,1.154,0,0,0,20.2,20.25L21.305,7.634A1.159,1.159,0,0,0,20.25,6.388ZM4.615,13.678a.293.293,0,0,1-.315-.259L3.534,4.912A.286.286,0,0,1,3.794,4.6L15.67,3.534a.293.293,0,0,1,.315.259l.2,2.246L7.609,5.286A1.154,1.154,0,0,0,6.359,6.333l-.634,7.244ZM20.021,7.911l-.744,8.507a.29.29,0,0,1-.311.264l-.791-.068L7.086,15.648a.29.29,0,0,1-.264-.311l.162-1.867.583-6.64a.29.29,0,0,1,.311-.264L16.3,7.3l1.263.111,2.195.191A.278.278,0,0,1,20.021,7.911Z" transform="translate(-2.25 -2.249)"/></svg>